<?xml version="1.0" encoding="utf-8"?>
<!-- Generator: Adobe Illustrator 21.0.2, SVG Export Plug-In . SVG Version: 6.00 Build 0)  -->
<svg version="1.1" id="card" xmlns="http://www.w3.org/2000/svg" xmlns:xlink="http://www.w3.org/1999/xlink" x="0px" y="0px"
	 viewBox="0 0 240 240" style="enable-background:new 0 0 240 240;" xml:space="preserve">
<style type="text/css">
	.st0{fill:#FC0303;}
</style>
<g>
	<path class="st0" d="M194.8,50.3C176.7,32.2,151.6,21,124,21c-27.6,0-52.7,11.2-70.7,29.3C35.2,68.4,24,93.4,24,121
		c0,27.6,11.2,52.7,29.3,70.7c18.1,18.1,43.1,29.3,70.7,29.3h0c27.6,0,52.6-11.2,70.7-29.3c18.1-18.1,29.3-43.1,29.3-70.7
		C224.1,93.4,212.9,68.4,194.8,50.3z M35.4,121c0-24.5,9.9-46.6,26-62.7c16.1-16.1,38.2-26,62.7-26c22.3,0,42.6,8.2,58.2,21.7
		L57.1,179.2C43.6,163.6,35.4,143.3,35.4,121z M186.7,183.7c-16.1,16.1-38.2,26-62.7,26c-22.6,0-43.2-8.5-58.9-22.4L190.3,62.1
		c13.9,15.7,22.4,36.3,22.4,58.9C212.7,145.5,202.8,167.7,186.7,183.7z"/>
</g>
</svg>
