<?xml version="1.0" encoding="utf-8"?>
<!-- Generator: Adobe Illustrator 21.0.2, SVG Export Plug-In . SVG Version: 6.00 Build 0)  -->
<svg version="1.1" id="card" xmlns="http://www.w3.org/2000/svg" xmlns:xlink="http://www.w3.org/1999/xlink" x="0px" y="0px"
	 viewBox="0 0 60 60" style="enable-background:new 0 0 60 60;" xml:space="preserve">
<style type="text/css">
	.st0{fill:#FC0303;}
</style>
<g>
	<path class="st0" d="M50.5,10.5c-5.1-5.1-12.2-8.3-20-8.3s-14.9,3.2-20,8.3c-5.1,5.1-8.3,12.2-8.3,20s3.2,14.9,8.3,20
		c5.1,5.1,12.2,8.3,20,8.3l0,0c7.8,0,14.9-3.2,20-8.3c5.1-5.1,8.3-12.2,8.3-20C58.7,22.7,55.6,15.6,50.5,10.5z M5.4,30.5
		c0-6.9,2.8-13.2,7.3-17.7s10.8-7.3,17.7-7.3c6.3,0,12,2.3,16.4,6.1L11.6,46.9C7.7,42.5,5.4,36.8,5.4,30.5z M48.2,48.2
		c-4.5,4.5-10.8,7.3-17.7,7.3c-6.4,0-12.2-2.4-16.6-6.3l35.4-35.4c3.9,4.4,6.3,10.3,6.3,16.6C55.5,37.4,52.7,43.7,48.2,48.2z"/>
</g>
</svg>
